<svg id="svg" version="1.1" width="972" height="500" xmlns="http://www.w3.org/2000/svg" xmlns:xlink="http://www.w3.org/1999/xlink" style="display: block;"><g id="svgg"><path id="path0" d="M56.544 24.812 C 56.693 25.445,56.993 27.389,57.210 29.133 C 57.619 32.421,57.884 33.753,59.232 39.300 C 60.758 45.578,63.143 53.502,64.188 55.761 C 64.397 56.214,65.242 58.251,66.065 60.288 C 70.546 71.380,79.445 86.603,85.973 94.343 C 86.402 94.852,88.227 97.027,90.028 99.177 C 104.082 115.950,125.108 130.884,146.502 139.289 C 147.521 139.689,148.724 140.164,149.177 140.345 C 152.530 141.683,158.961 143.653,165.432 145.325 C 166.966 145.721,171.363 146.573,176.749 147.517 C 182.039 148.444,193.423 149.383,199.383 149.383 C 205.343 149.383,216.726 148.444,222.016 147.517 C 230.657 146.002,231.987 145.715,238.024 144.063 C 241.289 143.169,248.052 140.993,249.588 140.342 C 250.041 140.150,252.541 139.123,255.144 138.061 C 263.000 134.854,278.553 126.388,280.999 123.988 C 281.300 123.693,281.948 123.238,282.439 122.978 C 285.125 121.556,293.661 114.472,299.714 108.642 C 312.752 96.084,324.425 79.413,331.269 63.580 C 331.758 62.449,332.408 60.967,332.713 60.288 C 335.697 53.653,339.401 41.055,340.977 32.180 C 341.585 28.758,341.559 26.129,340.946 29.067 C 340.811 29.716,340.533 30.895,340.328 31.687 C 340.123 32.479,339.468 35.165,338.873 37.654 C 338.277 40.144,337.625 42.737,337.425 43.416 C 337.224 44.095,336.761 45.669,336.395 46.914 C 332.930 58.718,326.517 72.387,319.503 82.922 C 312.765 93.042,309.316 97.279,300.908 105.761 C 283.918 122.902,263.725 135.277,242.181 141.749 C 240.144 142.361,238.014 143.018,237.449 143.208 C 235.604 143.829,227.458 145.592,223.457 146.237 C 221.307 146.583,218.344 147.079,216.872 147.339 C 212.836 148.050,192.465 148.338,186.831 147.762 C 160.368 145.060,139.010 137.320,117.695 122.709 C 106.995 115.374,92.242 101.477,86.855 93.660 C 86.529 93.186,86.136 92.706,85.983 92.593 C 85.830 92.479,84.512 90.720,83.053 88.683 C 73.140 74.836,65.544 58.977,61.175 43.004 C 59.826 38.074,59.341 35.877,57.865 28.010 C 57.506 26.101,57.002 24.341,56.743 24.100 C 56.394 23.776,56.343 23.960,56.544 24.812 " stroke="none" fill="#c4d3ed" fill-rule="evenodd"></path><path id="path1" d="M55.841 16.312 C 55.151 17.003,56.551 31.997,57.383 32.829 C 57.773 33.219,57.172 27.476,56.546 24.822 C 56.343 23.962,56.394 23.776,56.743 24.100 C 57.161 24.489,57.671 26.743,58.870 33.488 C 59.241 35.577,59.684 36.518,59.653 35.151 C 59.643 34.717,59.455 33.529,59.235 32.510 C 58.711 30.091,58.284 27.585,57.411 21.811 C 56.680 16.975,56.346 15.807,55.841 16.312 M6.215 20.370 C 6.185 23.415,7.175 32.471,8.216 38.683 C 10.323 51.253,15.656 69.820,19.740 78.807 C 19.946 79.259,20.909 81.481,21.880 83.745 C 36.200 117.121,65.680 151.322,95.679 169.365 C 97.037 170.182,99.074 171.415,100.206 172.106 C 104.921 174.985,114.066 179.691,121.605 183.119 C 124.352 184.368,133.472 187.848,137.389 189.142 C 237.101 222.081,343.646 170.701,380.264 72.016 C 381.999 67.342,385.146 57.197,386.009 53.498 C 387.840 45.651,388.607 41.889,389.531 36.214 C 390.407 30.833,390.942 24.339,390.588 23.384 C 390.285 22.562,389.978 24.099,388.685 32.922 C 388.336 35.298,387.867 38.169,387.642 39.300 C 387.416 40.432,386.881 43.117,386.452 45.267 C 380.511 75.065,365.644 105.504,345.350 129.424 C 338.220 137.828,324.950 150.846,318.922 155.350 C 318.316 155.802,315.709 157.765,313.128 159.712 C 288.915 177.973,258.430 190.919,229.424 195.259 C 216.196 197.238,215.052 197.314,198.560 197.306 C 180.869 197.298,174.481 196.720,160.082 193.831 C 90.930 179.952,35.709 129.020,14.403 59.465 C 11.744 50.785,7.514 28.568,7.376 22.559 C 7.359 21.808,7.095 20.545,6.790 19.753 L 6.235 18.313 6.215 20.370 M341.652 22.531 C 341.419 23.153,341.013 24.866,340.751 26.337 C 340.489 27.809,340.112 29.753,339.915 30.658 C 339.717 31.564,339.247 33.786,338.872 35.597 C 338.496 37.407,338.033 39.352,337.844 39.918 C 337.316 41.495,336.908 43.859,337.213 43.569 C 337.362 43.427,338.039 41.020,338.717 38.219 C 339.395 35.419,340.118 32.479,340.325 31.687 C 340.531 30.895,340.811 29.716,340.946 29.067 C 341.082 28.418,341.297 27.991,341.425 28.119 C 341.682 28.377,340.648 34.558,339.667 38.620 C 339.320 40.056,339.125 41.320,339.234 41.429 C 339.476 41.670,339.676 40.987,340.518 37.037 C 340.880 35.340,341.369 33.117,341.606 32.099 C 342.081 30.049,342.637 21.399,342.293 21.399 C 342.173 21.399,341.885 21.908,341.652 22.531 M57.856 35.185 C 57.978 36.317,58.239 37.798,58.436 38.477 C 58.633 39.156,59.105 40.916,59.485 42.387 C 59.864 43.858,60.324 45.525,60.507 46.091 C 60.690 46.656,61.161 48.230,61.554 49.588 C 61.947 50.947,62.446 52.243,62.662 52.469 C 63.089 52.916,63.060 52.796,61.469 47.531 C 59.953 42.515,59.813 42.002,59.060 38.683 C 57.950 33.792,57.595 32.761,57.856 35.185 M59.699 36.644 C 59.607 38.738,63.854 52.337,66.954 59.877 C 71.102 69.963,82.968 90.363,85.983 92.593 C 86.136 92.706,86.529 93.186,86.855 93.660 C 91.043 99.737,101.771 110.358,112.209 118.759 C 122.533 127.070,140.015 136.348,153.909 140.892 C 163.856 144.145,176.449 147.097,174.486 145.715 C 174.146 145.476,173.294 145.277,172.592 145.274 C 171.890 145.270,170.779 145.100,170.123 144.895 C 169.467 144.691,167.541 144.213,165.844 143.834 C 162.495 143.087,158.716 142.063,157.407 141.549 C 156.955 141.371,155.566 140.925,154.321 140.558 C 152.007 139.875,151.316 139.622,146.296 137.631 C 141.854 135.868,134.515 132.354,130.329 129.985 C 128.247 128.807,126.173 127.637,125.720 127.385 C 117.845 123.002,106.439 113.961,97.942 105.364 C 92.366 99.723,91.051 98.245,86.325 92.305 C 84.124 89.539,76.543 78.491,76.543 78.050 C 76.543 77.965,75.649 76.342,74.556 74.442 C 72.647 71.126,71.341 68.505,68.934 63.169 C 67.295 59.535,66.891 58.549,65.643 55.144 C 65.021 53.447,64.362 51.687,64.178 51.235 C 63.614 49.842,61.517 42.552,60.864 39.712 C 60.279 37.171,59.738 35.745,59.699 36.644 M337.486 46.701 C 336.201 51.157,334.006 57.405,332.712 60.288 C 332.408 60.967,331.758 62.449,331.269 63.580 C 321.580 85.996,298.960 113.397,281.996 123.268 C 281.260 123.696,280.658 124.202,280.658 124.393 C 280.658 124.584,280.890 124.608,281.173 124.446 C 281.840 124.064,287.385 120.049,287.654 119.753 C 287.767 119.628,288.693 118.883,289.711 118.096 C 310.229 102.244,325.702 80.402,336.201 52.469 C 336.371 52.016,336.812 50.628,337.180 49.383 C 337.548 48.138,338.148 46.156,338.513 44.979 C 338.878 43.801,339.107 42.629,339.022 42.374 C 338.937 42.119,338.246 44.066,337.486 46.701 M336.420 45.062 C 335.080 50.453,330.631 61.840,327.173 68.724 C 324.050 74.944,320.068 81.631,316.824 86.105 C 315.719 87.629,314.815 89.049,314.815 89.260 C 314.815 89.471,314.675 89.705,314.503 89.781 C 314.332 89.856,313.556 90.751,312.780 91.770 C 300.012 108.518,281.972 123.418,263.071 132.825 C 260.528 134.091,258.523 135.203,258.616 135.296 C 258.825 135.505,265.668 132.093,270.370 129.435 C 276.952 125.715,284.482 120.471,291.659 114.609 C 295.540 111.439,307.274 99.427,310.755 95.062 C 322.532 80.291,330.714 64.973,336.418 47.015 C 336.795 45.825,337.019 44.622,336.916 44.340 C 336.812 44.058,336.589 44.383,336.420 45.062 M62.991 53.384 C 62.961 53.929,64.949 59.152,66.320 62.127 C 66.786 63.138,67.337 64.414,67.546 64.962 C 67.754 65.510,68.007 65.875,68.109 65.774 C 68.210 65.672,67.451 63.563,66.423 61.087 C 65.395 58.610,64.403 56.214,64.219 55.761 C 63.252 53.382,63.016 52.925,62.991 53.384 M68.315 66.564 C 68.317 66.734,68.560 67.335,68.857 67.901 C 69.153 68.467,70.209 70.504,71.203 72.428 C 78.655 86.849,92.551 104.428,104.066 114.003 C 105.284 115.015,106.488 116.030,106.741 116.257 C 111.291 120.340,121.406 127.342,128.395 131.247 C 132.253 133.403,144.070 139.095,144.686 139.095 C 144.824 139.095,145.521 139.355,146.234 139.672 C 148.693 140.767,155.735 143.179,159.465 144.204 C 160.823 144.577,162.490 145.051,163.169 145.256 C 163.848 145.461,165.144 145.733,166.049 145.861 C 168.067 146.144,166.942 145.707,162.963 144.662 C 160.060 143.900,150.510 140.921,149.177 140.361 C 148.724 140.172,147.521 139.689,146.502 139.289 C 125.108 130.884,104.082 115.950,90.028 99.177 C 88.227 97.027,86.402 94.852,85.973 94.343 C 81.510 89.051,73.779 76.796,70.006 69.033 C 68.749 66.448,68.309 65.805,68.315 66.564 M275.718 127.462 C 270.028 131.028,261.026 135.667,255.144 138.064 C 252.541 139.125,250.041 140.153,249.588 140.349 C 248.385 140.871,238.916 143.828,235.802 144.655 C 231.735 145.734,230.756 146.108,232.716 145.832 C 233.621 145.705,234.918 145.439,235.597 145.242 C 236.276 145.044,237.942 144.577,239.300 144.204 C 241.829 143.509,244.832 142.553,246.296 141.975 C 246.749 141.797,248.045 141.336,249.177 140.951 C 250.309 140.566,251.818 139.991,252.531 139.673 C 253.245 139.355,253.934 139.095,254.064 139.095 C 254.381 139.095,259.002 136.985,263.713 134.689 C 267.750 132.722,272.414 130.109,277.184 127.143 C 280.595 125.022,280.426 125.145,280.210 124.929 C 280.115 124.834,278.093 125.973,275.718 127.462 M254.527 136.706 C 252.942 137.392,251.276 138.096,250.823 138.270 C 248.301 139.238,244.101 140.710,243.210 140.940 C 242.644 141.085,241.811 141.367,241.358 141.566 C 239.803 142.250,229.742 144.694,226.191 145.251 C 223.231 145.715,222.452 146.304,225.309 145.918 C 227.507 145.621,235.739 143.783,237.449 143.208 C 238.014 143.018,240.144 142.365,242.181 141.757 C 246.273 140.536,257.182 136.349,257.798 135.763 C 258.462 135.132,257.563 135.391,254.527 136.706 M168.519 146.502 C 168.971 146.697,169.956 146.869,170.706 146.885 C 171.457 146.901,172.382 147.080,172.764 147.283 C 173.145 147.486,174.753 147.757,176.337 147.886 C 179.539 148.145,178.852 147.943,172.317 146.699 C 168.672 146.005,167.183 145.928,168.519 146.502 M177.160 146.519 C 181.591 147.405,185.548 147.795,191.564 147.938 L 198.148 148.095 190.741 147.541 C 186.667 147.236,182.037 146.791,180.453 146.552 C 177.067 146.041,174.651 146.017,177.160 146.519 M218.107 146.551 C 216.862 146.741,212.418 147.168,208.230 147.501 L 200.617 148.105 207.202 147.943 C 213.219 147.795,217.183 147.403,221.605 146.519 L 223.251 146.189 221.811 146.198 C 221.019 146.203,219.352 146.362,218.107 146.551 M226.337 146.706 C 224.866 147.007,222.737 147.447,221.605 147.685 L 219.547 148.116 222.222 147.904 C 223.693 147.788,225.453 147.526,226.132 147.323 C 226.811 147.120,228.200 146.781,229.218 146.571 C 230.237 146.361,230.607 146.182,230.041 146.174 C 229.475 146.165,227.809 146.404,226.337 146.706 M181.070 148.567 C 187.943 150.157,220.428 149.920,218.799 148.291 C 218.685 148.178,215.510 148.377,211.742 148.734 C 203.226 149.541,195.454 149.552,187.449 148.769 C 180.714 148.110,178.841 148.051,181.070 148.567 " stroke="none" fill="#dfe6f2" fill-rule="evenodd"></path><path id="path2" d="M0.000 102.881 L 0.000 205.761 200.000 205.761 L 400.000 205.761 400.000 102.881 L 400.000 0.000 200.000 0.000 L 0.000 0.000 0.000 102.881 M57.413 21.811 C 58.585 29.539,59.412 34.166,60.061 36.626 C 60.270 37.418,60.745 39.270,61.116 40.741 C 61.487 42.212,61.956 43.971,62.159 44.650 C 62.362 45.329,62.825 46.903,63.187 48.148 C 63.549 49.393,63.995 50.782,64.178 51.235 C 64.362 51.687,65.021 53.447,65.643 55.144 C 66.891 58.549,67.295 59.535,68.934 63.169 C 71.341 68.505,72.647 71.126,74.556 74.442 C 75.649 76.342,76.543 77.965,76.543 78.050 C 76.543 78.491,84.124 89.539,86.325 92.305 C 91.051 98.245,92.366 99.723,97.942 105.364 C 106.439 113.961,117.845 123.002,125.720 127.385 C 126.173 127.637,128.247 128.807,130.329 129.985 C 134.515 132.354,141.854 135.868,146.296 137.631 C 151.316 139.622,152.007 139.875,154.321 140.558 C 155.566 140.925,156.955 141.379,157.407 141.566 C 157.860 141.753,158.693 142.019,159.259 142.157 C 159.825 142.295,161.307 142.688,162.551 143.030 C 181.917 148.361,204.690 149.165,226.337 145.283 C 230.176 144.594,239.998 142.164,241.358 141.566 C 241.811 141.367,242.644 141.085,243.210 140.940 C 244.109 140.708,248.415 139.197,250.823 138.268 C 274.769 129.027,297.224 112.175,312.780 91.770 C 313.556 90.751,314.332 89.856,314.503 89.781 C 314.675 89.705,314.815 89.471,314.815 89.260 C 314.815 89.049,315.719 87.629,316.824 86.105 C 327.592 71.255,335.505 52.287,339.870 30.864 C 340.124 29.619,340.587 27.281,340.899 25.667 C 341.211 24.054,341.685 22.387,341.952 21.964 C 342.558 21.003,342.278 29.204,341.606 32.099 C 341.369 33.117,340.878 35.340,340.515 37.037 C 340.151 38.735,339.691 40.679,339.493 41.358 C 339.294 42.037,338.843 43.611,338.491 44.856 C 337.434 48.587,336.529 51.596,336.201 52.469 C 325.702 80.402,310.229 102.244,289.711 118.096 C 288.693 118.883,287.767 119.632,287.654 119.761 C 287.541 119.890,285.967 121.051,284.156 122.341 C 282.346 123.630,280.679 124.830,280.453 125.007 C 279.641 125.643,274.264 128.956,270.939 130.869 C 266.608 133.361,254.846 139.095,254.064 139.095 C 253.934 139.095,253.245 139.355,252.531 139.673 C 251.818 139.991,250.309 140.566,249.177 140.951 C 248.045 141.336,246.749 141.797,246.296 141.975 C 244.212 142.797,240.117 144.035,235.391 145.272 C 234.599 145.480,232.469 145.950,230.658 146.317 C 228.848 146.684,226.718 147.155,225.926 147.363 C 215.790 150.028,191.563 150.323,176.749 147.962 C 169.207 146.759,166.675 146.210,159.465 144.210 C 155.684 143.162,148.662 140.753,146.234 139.672 C 145.521 139.355,144.824 139.095,144.686 139.095 C 144.070 139.095,132.253 133.403,128.395 131.247 C 121.406 127.342,111.291 120.340,106.741 116.257 C 106.488 116.030,105.284 115.015,104.066 114.003 C 90.498 102.721,75.264 82.362,67.877 65.638 C 67.377 64.506,66.555 62.654,66.051 61.523 C 65.546 60.391,64.623 58.076,63.999 56.379 C 63.376 54.681,62.721 52.922,62.544 52.469 C 61.961 50.974,61.392 49.209,60.687 46.708 C 60.305 45.350,59.751 43.405,59.455 42.387 C 58.904 40.483,58.815 40.098,57.797 35.185 C 56.087 26.930,55.067 17.087,55.841 16.312 C 56.346 15.808,56.680 16.974,57.413 21.811 M7.376 22.559 C 7.514 28.568,11.744 50.785,14.403 59.465 C 35.709 129.020,90.930 179.952,160.082 193.831 C 174.481 196.720,180.869 197.298,198.560 197.306 C 215.052 197.314,216.196 197.238,229.424 195.259 C 258.430 190.919,288.915 177.973,313.128 159.712 C 315.709 157.765,318.316 155.802,318.922 155.350 C 324.950 150.846,338.220 137.828,345.350 129.424 C 365.644 105.504,380.511 75.065,386.452 45.267 C 386.881 43.117,387.416 40.432,387.642 39.300 C 387.867 38.169,388.336 35.298,388.685 32.922 C 389.978 24.099,390.285 22.562,390.588 23.384 C 390.942 24.339,390.407 30.833,389.531 36.214 C 388.607 41.889,387.840 45.651,386.009 53.498 C 385.146 57.197,381.999 67.342,380.264 72.016 C 343.646 170.701,237.101 222.081,137.389 189.142 C 133.472 187.848,124.352 184.368,121.605 183.119 C 114.066 179.691,104.921 174.985,100.206 172.106 C 99.074 171.415,97.037 170.182,95.679 169.365 C 65.680 151.322,36.200 117.121,21.880 83.745 C 20.909 81.481,19.946 79.259,19.740 78.807 C 15.656 69.820,10.323 51.253,8.216 38.683 C 7.175 32.471,6.185 23.415,6.215 20.370 L 6.235 18.313 6.790 19.753 C 7.095 20.545,7.359 21.808,7.376 22.559 " stroke="none" fill="#f5f5f6" fill-rule="evenodd"></path></g></svg>