<svg id="svg" version="1.1" width="792" height="602" xmlns="http://www.w3.org/2000/svg" xmlns:xlink="http://www.w3.org/1999/xlink" style="display: block;"><g id="svgg"><path id="path0" d="M-0.000 173.991 L -0.000 303.538 88.724 303.410 L 177.447 303.283 210.952 257.372 C 229.380 232.120,244.397 211.410,244.324 211.349 C 243.635 210.770,0.369 44.444,0.211 44.444 C 0.095 44.444,-0.000 102.741,-0.000 173.991 " stroke="none" fill="#f0f0f0" fill-rule="evenodd"></path><path id="path1" d="M210.820 257.478 L 177.448 303.283 227.906 303.412 C 255.657 303.482,300.932 303.482,328.517 303.412 L 378.671 303.283 311.924 257.614 C 275.214 232.496,244.956 211.884,244.685 211.809 C 244.414 211.735,229.175 232.286,210.820 257.478 " stroke="none" fill="#f4f4f4" fill-rule="evenodd"></path><path id="path2" d="M0.121 22.063 L 0.253 44.125 122.371 127.680 C 189.537 173.634,244.555 211.149,244.635 211.046 C 244.715 210.943,279.168 163.699,321.199 106.061 C 363.229 48.422,397.840 0.979,398.113 0.631 C 398.509 0.126,358.674 -0.000,199.299 -0.000 L -0.011 -0.000 0.121 22.063 M99.874 303.914 C 154.943 303.985,245.057 303.985,300.126 303.914 C 355.196 303.843,310.139 303.785,200.000 303.785 C 89.861 303.785,44.804 303.843,99.874 303.914 " stroke="none" fill="#f9f9f9" fill-rule="evenodd"></path><path id="path3" d="M321.970 105.332 C 279.747 163.235,245.202 210.818,245.202 211.072 C 245.202 211.325,275.429 232.229,312.374 257.524 L 379.545 303.515 389.773 303.525 L 400.000 303.535 400.000 151.768 C 400.000 30.676,399.872 0.005,399.369 0.026 C 399.021 0.041,364.192 47.428,321.970 105.332 " stroke="none" fill="#ffffff" fill-rule="evenodd"></path><path id="path4" d="" stroke="none" fill="#fefefe" fill-rule="evenodd"></path></g></svg>