<svg id="svg" version="1.1" width="500" height="500" xmlns="http://www.w3.org/2000/svg" xmlns:xlink="http://www.w3.org/1999/xlink" style="display: block;"><g id="svgg"><path id="path0" d="M0.000 294.400 L 0.000 400.000 91.400 399.981 L 182.800 399.962 184.549 396.181 C 186.396 392.188,189.966 385.676,197.697 372.202 C 200.283 367.692,202.400 363.838,202.400 363.637 C 202.400 363.435,203.529 361.365,204.908 359.035 C 207.219 355.131,209.467 351.125,214.017 342.800 C 214.979 341.040,217.437 336.540,219.479 332.800 C 221.521 329.060,223.540 325.460,223.966 324.800 C 224.391 324.140,225.546 322.052,226.532 320.159 L 228.324 316.719 225.962 314.788 C 224.663 313.726,223.331 312.845,223.002 312.829 C 222.673 312.813,219.073 310.944,215.002 308.677 C 210.931 306.409,205.620 303.468,203.200 302.142 C 200.780 300.816,197.457 298.891,195.816 297.865 C 194.175 296.839,192.674 296.000,192.482 296.000 C 192.290 296.000,189.392 294.380,186.043 292.400 C 182.694 290.420,179.830 288.800,179.679 288.800 C 179.528 288.800,174.632 286.100,168.800 282.800 C 162.968 279.500,158.054 276.800,157.882 276.800 C 157.709 276.800,156.225 275.955,154.584 274.922 C 152.943 273.888,149.260 271.777,146.400 270.230 C 138.561 265.990,128.811 260.496,124.400 257.834 C 123.520 257.303,122.080 256.531,121.200 256.118 C 120.320 255.705,117.260 254.026,114.400 252.386 C 111.540 250.747,104.160 246.619,98.000 243.213 C 91.840 239.807,85.540 236.255,84.000 235.320 C 82.460 234.385,80.477 233.297,79.594 232.903 C 78.710 232.509,76.010 231.014,73.594 229.581 C 69.074 226.900,66.300 225.337,58.000 220.794 C 55.360 219.349,50.320 216.532,46.800 214.534 C 43.280 212.535,38.960 210.122,37.200 209.170 C 35.440 208.218,30.580 205.523,26.400 203.181 C 22.220 200.839,16.820 197.863,14.400 196.567 C 11.980 195.271,9.640 193.942,9.200 193.612 C 8.030 192.737,0.807 188.800,0.372 188.800 C 0.167 188.800,0.000 236.320,0.000 294.400 " stroke="none" fill="#ebebeb" fill-rule="evenodd"></path><path id="path1" d="M70.400 227.559 C 70.400 227.779,71.480 228.517,72.800 229.200 C 74.120 229.883,75.200 230.261,75.200 230.041 C 75.200 229.821,74.120 229.083,72.800 228.400 C 71.480 227.717,70.400 227.339,70.400 227.559 M226.374 315.153 L 228.349 316.670 226.544 320.135 C 225.552 322.041,224.391 324.140,223.966 324.800 C 223.540 325.460,221.523 329.060,219.484 332.800 C 217.446 336.540,214.687 341.580,213.354 344.000 C 212.022 346.420,210.143 349.840,209.179 351.600 C 208.215 353.360,206.296 356.706,204.913 359.035 C 203.531 361.365,202.400 363.435,202.400 363.637 C 202.400 363.838,200.283 367.692,197.697 372.202 C 186.688 391.389,182.707 398.973,183.319 399.586 C 183.550 399.817,227.231 399.915,280.387 399.803 L 377.033 399.600 373.517 397.758 C 371.582 396.746,368.740 395.167,367.200 394.252 C 365.660 393.336,362.420 391.518,360.000 390.212 C 357.580 388.906,353.573 386.614,351.095 385.118 C 348.618 383.623,346.381 382.400,346.124 382.400 C 345.867 382.400,342.988 380.780,339.727 378.800 C 336.466 376.820,333.423 375.200,332.965 375.200 C 332.508 375.200,332.013 374.930,331.867 374.600 C 331.720 374.270,329.800 373.100,327.600 372.000 C 325.400 370.900,323.420 369.820,323.199 369.600 C 322.795 369.196,319.860 367.584,314.000 364.545 C 312.240 363.633,310.620 362.687,310.399 362.443 C 310.179 362.199,308.739 361.332,307.199 360.516 C 299.000 356.171,287.082 349.589,286.000 348.809 C 285.247 348.266,278.227 344.394,272.001 341.087 C 270.461 340.269,269.021 339.420,268.800 339.200 C 268.579 338.980,267.139 338.132,265.599 337.316 C 257.791 333.178,252.318 330.168,251.600 329.617 C 251.160 329.279,248.460 327.742,245.600 326.202 C 233.115 319.479,230.652 318.019,228.172 315.873 C 226.727 314.623,225.287 313.608,224.972 313.618 C 224.657 313.628,225.288 314.318,226.374 315.153 " stroke="none" fill="#f0f0f0" fill-rule="evenodd"></path><path id="path2" d="M397.276 12.342 C 396.134 14.291,395.200 16.062,395.200 16.279 C 395.200 16.496,393.362 19.852,391.115 23.737 C 388.869 27.622,385.578 33.500,383.803 36.800 C 382.028 40.100,378.341 46.760,375.610 51.600 C 372.879 56.440,367.655 65.800,364.001 72.400 C 360.348 79.000,355.793 87.173,353.879 90.563 C 351.966 93.952,350.400 96.898,350.400 97.110 C 350.400 97.321,349.366 99.228,348.103 101.347 C 346.839 103.466,342.823 110.600,339.177 117.200 C 335.532 123.800,330.142 133.520,327.200 138.800 C 324.258 144.080,318.861 153.800,315.207 160.400 C 311.553 167.000,307.848 173.660,306.973 175.200 C 303.834 180.726,302.632 182.883,299.615 188.400 C 295.192 196.489,285.334 214.204,279.580 224.400 C 276.849 229.240,273.658 235.000,272.490 237.200 C 271.322 239.400,268.928 243.720,267.171 246.800 C 265.414 249.880,262.712 254.740,261.167 257.600 C 259.622 260.460,257.535 264.240,256.529 266.000 C 254.386 269.751,246.865 283.327,238.802 298.000 C 235.659 303.720,232.304 309.660,231.347 311.200 C 228.460 315.843,226.917 314.478,248.800 326.634 C 254.300 329.689,261.140 333.459,264.000 335.011 C 266.860 336.563,269.560 338.092,270.000 338.409 C 270.810 338.993,273.338 340.414,285.600 347.179 C 289.340 349.242,294.020 351.848,296.000 352.970 C 300.151 355.321,308.815 360.161,323.600 368.386 C 329.320 371.568,337.933 376.383,342.740 379.086 C 347.547 381.789,351.567 384.000,351.674 384.000 C 351.781 384.000,354.608 385.620,357.957 387.600 C 361.306 389.580,364.170 391.200,364.320 391.200 C 364.471 391.200,368.091 393.180,372.364 395.600 L 380.134 400.000 390.067 400.000 L 400.000 400.000 400.000 204.400 C 400.000 96.820,399.854 8.800,399.676 8.800 C 399.498 8.800,398.418 10.394,397.276 12.342 " stroke="none" fill="#fefefe" fill-rule="evenodd"></path><path id="path3" d="" stroke="none" fill="#f0f0f1" fill-rule="evenodd"></path><path id="path4" d="M0.001 93.800 L 0.002 187.600 6.201 190.998 C 9.610 192.867,14.740 195.700,17.600 197.294 C 20.460 198.888,24.700 201.230,27.023 202.499 C 32.441 205.458,43.312 211.636,48.212 214.541 C 50.309 215.783,52.192 216.800,52.397 216.800 C 52.602 216.800,57.487 219.500,63.252 222.800 C 69.018 226.100,73.868 228.800,74.032 228.800 C 74.196 228.800,76.074 229.829,78.207 231.086 C 80.339 232.343,83.865 234.370,86.042 235.590 C 95.051 240.638,104.658 245.968,108.603 248.106 C 110.915 249.359,114.238 251.287,115.987 252.392 C 117.737 253.496,119.398 254.400,119.679 254.400 C 119.961 254.400,122.218 255.624,124.695 257.120 C 127.173 258.616,130.820 260.726,132.800 261.809 C 134.780 262.892,138.470 264.908,141.000 266.289 C 150.733 271.602,154.740 273.842,158.699 276.187 C 160.955 277.523,164.780 279.689,167.200 281.001 C 176.433 286.005,180.427 288.232,181.200 288.805 C 181.640 289.131,184.520 290.762,187.600 292.429 C 193.291 295.508,194.710 296.291,200.400 299.492 C 204.292 301.681,211.923 305.919,216.800 308.600 C 225.017 313.118,227.642 314.704,228.405 315.614 C 229.095 316.436,243.685 325.004,247.200 326.651 C 247.860 326.961,249.480 327.869,250.800 328.670 C 252.120 329.471,256.080 331.689,259.600 333.600 C 263.120 335.511,267.080 337.729,268.400 338.530 C 269.720 339.331,271.340 340.237,272.000 340.545 C 272.660 340.852,274.954 342.131,277.097 343.388 C 279.240 344.645,281.146 345.521,281.331 345.336 C 281.647 345.020,276.344 341.600,275.538 341.600 C 275.335 341.600,273.825 340.761,272.184 339.735 C 270.543 338.710,266.860 336.592,264.000 335.030 C 261.140 333.467,254.300 329.689,248.800 326.634 C 226.917 314.478,228.460 315.843,231.347 311.200 C 232.304 309.660,235.659 303.720,238.802 298.000 C 246.865 283.327,254.386 269.751,256.529 266.000 C 257.535 264.240,259.622 260.460,261.167 257.600 C 262.712 254.740,265.414 249.880,267.171 246.800 C 268.928 243.720,271.322 239.400,272.490 237.200 C 273.658 235.000,276.849 229.240,279.580 224.400 C 285.334 214.204,295.192 196.489,299.615 188.400 C 302.632 182.883,303.834 180.726,306.973 175.200 C 307.848 173.660,311.553 167.000,315.207 160.400 C 318.861 153.800,324.258 144.080,327.200 138.800 C 330.142 133.520,335.532 123.800,339.177 117.200 C 342.823 110.600,346.839 103.466,348.103 101.347 C 349.366 99.228,350.400 97.321,350.400 97.110 C 350.400 96.898,351.966 93.952,353.879 90.563 C 355.793 87.173,360.348 79.000,364.001 72.400 C 367.655 65.800,372.879 56.440,375.610 51.600 C 378.341 46.760,382.028 40.100,383.803 36.800 C 385.578 33.500,388.869 27.622,391.115 23.737 C 393.362 19.852,395.200 16.472,395.200 16.225 C 395.200 15.979,396.280 14.022,397.600 11.876 C 399.424 8.912,400.000 7.019,400.000 3.988 L 400.000 0.000 200.000 0.000 L 0.000 0.000 0.001 93.800 M282.400 345.930 C 282.400 346.381,291.042 351.407,293.182 352.200 C 294.797 352.799,294.797 352.798,293.200 351.536 C 291.313 350.044,282.400 345.417,282.400 345.930 M295.640 353.518 C 296.317 354.157,302.429 357.621,316.000 365.058 C 318.420 366.384,321.743 368.309,323.384 369.335 C 325.025 370.361,326.550 371.200,326.772 371.200 C 326.994 371.200,328.999 372.322,331.228 373.693 C 333.457 375.065,335.470 375.996,335.703 375.764 C 336.140 375.326,334.906 374.582,320.800 366.784 C 316.180 364.230,308.647 360.039,304.060 357.470 C 295.927 352.916,294.089 352.053,295.640 353.518 M336.800 376.252 C 336.800 376.660,341.975 379.818,347.600 382.841 C 349.360 383.787,354.040 386.368,358.000 388.577 C 361.960 390.785,367.000 393.583,369.200 394.795 C 371.400 396.006,374.389 397.714,375.842 398.590 C 377.295 399.466,378.663 400.004,378.881 399.785 C 379.241 399.426,375.550 397.269,362.400 390.151 C 359.980 388.841,357.640 387.510,357.200 387.192 C 356.760 386.874,354.780 385.724,352.800 384.636 C 350.820 383.548,346.410 381.127,343.000 379.257 C 339.590 377.386,336.800 376.034,336.800 376.252 " stroke="none" fill="#f5f5f6" fill-rule="evenodd"></path></g></svg>